<svg width="42" height="33" viewBox="0 0 42 33" fill="none" xmlns="http://www.w3.org/2000/svg">
<g clip-path="url(#clip0_22_317)">
<path d="M26.8125 11.3438C26.8125 17.6086 20.8119 22.6875 13.4062 22.6875C10.9441 22.6875 8.64316 22.1268 6.65801 21.1471C6.17461 21.4049 5.62676 21.6562 5.03379 21.8818C3.8543 22.3266 2.43633 22.6875 1.03125 22.6875C0.586523 22.6875 0.186914 22.3975 0.0515625 21.9721C-0.0837891 21.5467 0.0644531 21.0826 0.425391 20.8184L0.438281 20.8055C0.451172 20.7926 0.476953 20.7797 0.50918 20.7539C0.573633 20.7023 0.670312 20.625 0.786328 20.5154C1.01836 20.3027 1.33418 19.9934 1.64355 19.5938C1.99805 19.1426 2.3332 18.6012 2.55879 18.0018C0.947461 16.1326 0 13.8316 0 11.3438C0 5.07891 6.00059 0 13.4062 0C20.8119 0 26.8125 5.07891 26.8125 11.3438ZM14.9209 24.6855C22.4877 24.0346 28.875 18.5818 28.875 11.3438C28.875 11.0086 28.8621 10.6734 28.8363 10.3447C35.7779 10.7701 41.25 15.675 41.25 21.6562C41.25 24.1441 40.3025 26.4451 38.6977 28.3207C38.9232 28.9266 39.2584 29.4615 39.6129 29.9127C39.9223 30.3123 40.2381 30.6217 40.4701 30.8344C40.5861 30.9375 40.6828 31.0213 40.7473 31.0729C40.7795 31.0986 40.8053 31.118 40.8182 31.1244L40.8311 31.1373C41.192 31.4016 41.3402 31.8656 41.2049 32.291C41.0695 32.7164 40.6699 33.0064 40.2252 33.0064C38.8201 33.0064 37.4021 32.6455 36.2227 32.2008C35.6297 31.9752 35.0754 31.7238 34.5984 31.466C32.6068 32.4393 30.3059 33 27.8438 33C21.682 33 16.4871 29.4809 14.9209 24.6855ZM14.6953 4.64062C14.6953 3.93164 14.1152 3.35156 13.4062 3.35156C12.6973 3.35156 12.1172 3.93164 12.1172 4.64062V5.54297C11.6273 5.65254 11.1375 5.82656 10.6863 6.09082C9.79043 6.62578 9.01699 7.56035 9.02344 8.92031C9.02988 10.2287 9.79688 11.0537 10.6154 11.5436C11.3244 11.9689 12.2074 12.2396 12.91 12.4459L13.0195 12.4781C13.8316 12.723 14.4246 12.9164 14.8242 13.1678C15.1529 13.374 15.198 13.5158 15.2045 13.6963C15.2109 14.0186 15.0885 14.2119 14.8242 14.373C14.502 14.5729 13.9928 14.6953 13.4449 14.676C12.7295 14.6502 12.0592 14.4246 11.1826 14.1281C11.0344 14.0766 10.8797 14.025 10.7186 13.9734C10.0418 13.7479 9.31348 14.1152 9.08789 14.7855C8.8623 15.4559 9.22969 16.1906 9.9 16.4162C10.0225 16.4549 10.1578 16.5 10.2932 16.5516C10.8281 16.7385 11.4469 16.9512 12.1107 17.093V18.034C12.1107 18.743 12.6908 19.323 13.3998 19.323C14.1088 19.323 14.6889 18.743 14.6889 18.034V17.1445C15.2045 17.035 15.7201 16.8545 16.1842 16.5645C17.1059 15.9908 17.802 15.0111 17.7826 13.6641C17.7633 12.3557 17.0285 11.5113 16.1971 10.9828C15.4559 10.5187 14.5277 10.2352 13.8059 10.016L13.7607 10.0031C12.9357 9.75176 12.3492 9.57129 11.9367 9.32637C11.6016 9.12656 11.5951 9.01055 11.5951 8.89453C11.5951 8.65605 11.6854 8.47559 11.9947 8.29512C12.3428 8.08887 12.8713 7.96641 13.3805 7.97285C13.9992 7.9793 14.6824 8.11465 15.3914 8.30801C16.0811 8.48848 16.7836 8.08242 16.9705 7.39277C17.1574 6.70312 16.7449 6.00059 16.0553 5.81367C15.6363 5.7041 15.1723 5.59453 14.6953 5.51074V4.64062Z" fill="#5771FF"/>
</g>
<defs>
<clipPath id="clip0_22_317">
<rect width="41.25" height="33" fill="white"/>
</clipPath>
</defs>
</svg>
