<svg width="30" height="33" viewBox="0 0 30 33" fill="none" xmlns="http://www.w3.org/2000/svg">
<path d="M0 10.3125V16.5C0 24.4729 6.71652 30.9375 15 30.9375C23.2835 30.9375 30 24.4729 30 16.5V10.3125H21.4286V16.5C21.4286 19.916 18.5491 22.6875 15 22.6875C11.4509 22.6875 8.57143 19.916 8.57143 16.5V10.3125H0ZM0 8.25H8.57143V4.125C8.57143 2.98418 7.61384 2.0625 6.42857 2.0625H2.14286C0.957589 2.0625 0 2.98418 0 4.125V8.25ZM21.4286 8.25H30V4.125C30 2.98418 29.0424 2.0625 27.8571 2.0625H23.5714C22.3862 2.0625 21.4286 2.98418 21.4286 4.125V8.25Z" fill="#5771FF"/>
</svg>
