<svg width="38" height="33" viewBox="0 0 38 33" fill="none" xmlns="http://www.w3.org/2000/svg">
<g clip-path="url(#clip0_22_314)">
<path d="M0 7.25095V27.2185C0 28.3787 0.650977 29.4744 1.74023 29.8804C7.34766 31.9752 12.9551 30.5443 18.5625 29.1135C23.7059 27.8051 28.8492 26.4902 33.9861 27.8953C35.4686 28.3013 37.125 27.283 37.125 25.7426V5.76853C37.125 4.60837 36.474 3.51267 35.3848 3.10661C29.7773 1.02478 24.1699 2.45564 18.5625 3.8865C13.4191 5.1949 8.27578 6.50329 3.13887 5.09822C1.65 4.69216 0 5.71052 0 7.25095ZM18.5625 22.6875C15.7137 22.6875 13.4062 19.916 13.4062 16.5C13.4062 13.084 15.7137 10.3125 18.5625 10.3125C21.4113 10.3125 23.7188 13.084 23.7188 16.5C23.7188 19.916 21.4113 22.6875 18.5625 22.6875ZM4.125 22.6875C6.4002 22.6875 8.25 24.5373 8.25 26.8125H4.125V22.6875ZM8.25 9.28122C8.25 11.5564 6.4002 13.4062 4.125 13.4062V9.28122H8.25ZM33 19.5937V23.7187H28.875C28.875 21.4435 30.7248 19.5937 33 19.5937ZM28.875 6.18747H33V10.3125C30.7248 10.3125 28.875 8.46267 28.875 6.18747Z" fill="#5771FF"/>
</g>
<defs>
<clipPath id="clip0_22_314">
<rect width="37.125" height="33" fill="white"/>
</clipPath>
</defs>
</svg>
