<svg width="37" height="33" viewBox="0 0 37 33" fill="none" xmlns="http://www.w3.org/2000/svg">
<g clip-path="url(#clip0_22_320)">
<path d="M20.3564 1.16016C20.016 0.451172 19.2965 0 18.5064 0C17.7163 0 17.0033 0.451172 16.6564 1.16016L12.5261 9.6873L3.30175 11.0537C2.53092 11.1697 1.88856 11.7111 1.65088 12.4523C1.41321 13.1936 1.60592 14.0121 2.15835 14.56L8.85175 21.2051L7.27154 30.5959C7.14307 31.3693 7.46425 32.1557 8.10019 32.6133C8.73613 33.0709 9.57762 33.1289 10.2714 32.7615L18.5129 28.3465L26.7544 32.7615C27.4481 33.1289 28.2896 33.0773 28.9255 32.6133C29.5615 32.1492 29.8827 31.3693 29.7542 30.5959L28.1676 21.2051L34.861 14.56C35.4134 14.0121 35.6125 13.1936 35.3684 12.4523C35.1243 11.7111 34.4884 11.1697 33.7176 11.0537L24.4868 9.6873L20.3564 1.16016Z" fill="#5771FF"/>
</g>
<defs>
<clipPath id="clip0_22_320">
<rect width="37" height="33" fill="white"/>
</clipPath>
</defs>
</svg>
