<svg width="38" height="33" viewBox="0 0 38 33" fill="none" xmlns="http://www.w3.org/2000/svg">
<g clip-path="url(#clip0_25_2)">
<path d="M5.75634 14.4246L0 24.2215V6.1875C0 3.9123 1.86254 2.0625 4.15339 2.0625H11.7788C12.882 2.0625 13.9398 2.49434 14.7186 3.26777L16.4384 4.97578C17.2171 5.74922 18.2749 6.18105 19.3782 6.18105L26.9971 6.1875C29.2879 6.1875 31.1504 8.0373 31.1504 10.3125V12.375H9.34513C7.86549 12.375 6.50266 13.1549 5.75634 14.4246ZM7.54749 15.4623C7.92389 14.8242 8.60531 14.4375 9.34513 14.4375H35.3038C36.0502 14.4375 36.7316 14.8307 37.1015 15.4752C37.4714 16.1197 37.4714 16.9061 37.095 17.5441L29.8266 29.9191C29.4566 30.5508 28.7752 30.9375 28.0354 30.9375H2.0767C1.33038 30.9375 0.648968 30.5443 0.279056 29.8998C-0.0908554 29.2553 -0.0908555 28.4689 0.285546 27.8309L7.55398 15.4559L7.54749 15.4623Z" fill="#5771FF"/>
</g>
<defs>
<clipPath id="clip0_25_2">
<rect width="37.3805" height="33" fill="white"/>
</clipPath>
</defs>
</svg>
