<svg width="28" height="33" viewBox="0 0 28 33" fill="none" xmlns="http://www.w3.org/2000/svg">
<path d="M10 5.15625C10 3.44824 11.3438 2.0625 13 2.0625H15C16.6562 2.0625 18 3.44824 18 5.15625V27.8438C18 29.5518 16.6562 30.9375 15 30.9375H13C11.3438 30.9375 10 29.5518 10 27.8438V5.15625ZM0 17.5312C0 15.8232 1.34375 14.4375 3 14.4375H5C6.65625 14.4375 8 15.8232 8 17.5312V27.8438C8 29.5518 6.65625 30.9375 5 30.9375H3C1.34375 30.9375 0 29.5518 0 27.8438V17.5312ZM23 6.1875H25C26.6562 6.1875 28 7.57324 28 9.28125V27.8438C28 29.5518 26.6562 30.9375 25 30.9375H23C21.3438 30.9375 20 29.5518 20 27.8438V9.28125C20 7.57324 21.3438 6.1875 23 6.1875Z" fill="#5771FF"/>
</svg>
