<?xml version="1.0" standalone="no"?>
<!DOCTYPE svg PUBLIC "-//W3C//DTD SVG 20010904//EN"
 "http://www.w3.org/TR/2001/REC-SVG-20010904/DTD/svg10.dtd">
<svg version="1.0" xmlns="http://www.w3.org/2000/svg"
 width="100.000000pt" height="100.000000pt" viewBox="0 0 100.000000 100.000000"
 preserveAspectRatio="xMidYMid meet">

<g transform="translate(0.000000,100.000000) scale(0.100000,-0.100000)"
fill="#000000" stroke="none">
<path d="M125 987 c-3 -8 -5 -169 -3 -358 l3 -344 29 -62 c31 -69 107 -148
172 -181 135 -69 305 -45 419 59 230 211 120 591 -188 648 -67 12 -89 6 -85
-22 2 -16 15 -23 65 -33 85 -17 130 -40 184 -94 65 -65 92 -141 87 -240 -7
-121 -69 -215 -176 -267 -75 -37 -191 -39 -263 -6 -69 31 -128 90 -161 158
l-28 60 0 318 0 317 43 -6 c23 -4 54 -13 69 -21 54 -27 58 -49 58 -318 0 -222
2 -249 19 -283 28 -54 70 -75 163 -80 102 -6 108 -1 108 95 0 121 -42 185
-122 187 -37 1 -43 -2 -46 -20 -3 -18 4 -23 32 -28 53 -10 76 -46 76 -117 l0
-59 -50 0 c-55 0 -104 20 -114 45 -3 9 -6 123 -6 253 0 134 -5 253 -11 275
-21 77 -86 117 -216 133 -41 4 -54 3 -58 -9z"/>
</g>
</svg>
